<svg width="129" height="25" viewBox="0 0 129 25" fill="none" xmlns="http://www.w3.org/2000/svg">
<path d="M7.26448 17.306L10.0709 7.4849C10.2484 6.86597 10.6981 6.55943 11.4222 6.55943H21.1235L22.8091 0.65918H10.7165C7.40976 0.65918 5.34821 2.08972 4.52958 4.9508L0.224312 20.024C-0.557417 22.7625 0.703956 24.1317 4.01074 24.1317H16.1748L17.8605 18.2315H8.08772C7.36134 18.2315 7.08923 17.9249 7.26448 17.306ZM49.1158 6.00181C47.3771 6.00181 46.0073 6.35799 45.0088 7.06742C44.0103 7.77977 43.307 8.84538 42.9012 10.2642L38.9395 24.1317H45.2394L48.6269 12.2728C48.8045 11.6539 49.2542 11.3474 49.9782 11.3474H54.611L56.1375 6.00473H49.1158V6.00181ZM37.4452 6.00181H24.1212L22.6731 11.0671H33.7164C34.4405 11.0671 34.7126 11.3766 34.5374 11.9926L34.15 13.3501C33.8041 13.2071 33.4282 13.1341 33.0177 13.1341H25.8853C22.7953 13.1341 20.8513 14.5354 20.0512 17.3352L19.2833 20.024C18.5015 22.7625 19.6545 24.1317 22.7446 24.1317H32.4481C35.7042 24.1317 37.7404 22.7129 38.5521 19.8693L41.2962 10.2642C42.1056 7.4236 40.8212 6.00181 37.4452 6.00181ZM33.0293 17.2739L32.6672 18.541C32.5496 18.9526 32.2498 19.1599 31.7656 19.1599H26.4802C25.9983 19.1599 25.8161 18.9526 25.9337 18.541L26.2958 17.2739C26.4134 16.8622 26.7132 16.655 27.1951 16.655H32.4804C32.9624 16.6579 33.1469 16.8622 33.0293 17.2739Z" fill="white"/>
<path d="M77.3884 0.866211L68.2613 16.3394L67.8301 0.866211H59.1042L52.3984 24.3388H58.8806L62.3049 12.3543L62.8284 24.3388H69.163L76.496 12.3543L73.0739 24.3388H79.4453L86.1511 0.866211H77.3884ZM104.749 10.4713C105.561 7.63064 104.276 6.20885 100.898 6.20885H87.5762L86.1281 11.2741H97.1714C97.8955 11.2741 98.1676 11.5836 97.9924 12.1996L97.605 13.5572C97.2591 13.4141 96.8832 13.3411 96.4727 13.3411H89.3403C86.2503 13.3411 84.3064 14.7425 83.5062 17.5422L82.7383 20.2311C81.9566 22.9695 83.1095 24.3388 86.1996 24.3388H95.9031C99.1592 24.3388 101.195 22.9199 102.007 20.0763L104.749 10.4713ZM96.4843 17.4839L96.1222 18.7509C96.0046 19.1625 95.7048 19.3698 95.2206 19.3698H89.9353C89.4533 19.3698 89.2711 19.1625 89.3887 18.7509L89.7508 17.4839C89.8684 17.0722 90.1682 16.8649 90.6501 16.8649H95.9354C96.4197 16.8649 96.6019 17.0722 96.4843 17.4839ZM128.936 6.20885H121.37L116.429 11.0902L114.13 6.20885H106.273L111.09 15.0753L100.986 24.3417H108.768L113.864 19.3085L116.228 24.3417H124.048L119.092 15.0753L128.936 6.20885Z" fill="white"/>
<path opacity="0.77" d="M69.3679 14.4619L68.2726 16.3216L68.2219 14.4619H62.4039L62.8328 24.3268H69.1719L75.209 14.4619H69.3679ZM119.101 15.0516L119.758 14.459H113.89H110.774L111.095 15.0516L100.983 24.3239H108.773L113.871 19.2849L116.235 24.3239H124.061L119.101 15.0516ZM7.27239 17.2909L8.08179 14.459H1.81412L0.227603 20.0089C-0.556432 22.7503 0.707249 24.1195 4.01634 24.1195H16.1896L17.8776 18.2134H8.09562C7.36924 18.2193 7.09483 17.9098 7.27239 17.2909ZM21.747 14.4619C20.9653 15.1509 20.4004 16.1056 20.0522 17.323L19.2843 20.0118C18.5002 22.7532 19.6555 24.1224 22.7479 24.1224H32.456C35.7167 24.1224 37.7529 22.7007 38.5646 19.8571L40.1073 14.459H21.747V14.4619ZM33.0395 17.2617L32.6774 18.5287C32.5598 18.9404 32.26 19.1477 31.7758 19.1477H26.4859C26.0016 19.1477 25.8194 18.9404 25.937 18.5287L26.2991 17.2617C26.4167 16.85 26.7165 16.6428 27.2007 16.6428H32.4906C32.9749 16.6428 33.1571 16.85 33.0395 17.2617ZM52.4005 24.3268H58.8849L61.7029 14.4619H55.2184L52.4005 24.3268ZM103.619 14.4619H85.4545C84.5413 15.1626 83.891 16.1815 83.5059 17.5274L82.738 20.2162C81.9563 22.9576 83.1093 24.3268 86.2016 24.3268H95.9098C99.1705 24.3268 101.207 22.905 102.018 20.0615L103.619 14.4619ZM96.4932 17.4631L96.1312 18.7302C96.0136 19.1418 95.7138 19.3491 95.2296 19.3491H89.9396C89.4577 19.3491 89.2732 19.1418 89.3908 18.7302L89.7529 17.4631C89.8705 17.0515 90.1725 16.8442 90.6545 16.8442H95.9444C96.4287 16.8442 96.6132 17.0515 96.4932 17.4631ZM38.9428 24.1224H45.245L48.0053 14.459H41.703L38.9428 24.1224ZM73.0852 24.3268H79.4612L82.2792 14.4619H75.9031L73.0852 24.3268Z" fill="url(#paint0_linear_3390_455)"/>
<defs>
<linearGradient id="paint0_linear_3390_455" x1="62.0315" y1="22.5518" x2="62.0315" y2="4.75053" gradientUnits="userSpaceOnUse">
<stop stop-color="white"/>
<stop offset="1"/>
</linearGradient>
</defs>
</svg>
