<svg width="153" height="54" viewBox="0 0 153 54" fill="none" xmlns="http://www.w3.org/2000/svg">
<path d="M9.46871 19.5071L12.7573 7.99851C12.9654 7.27324 13.4923 6.91403 14.3408 6.91403H25.7089L27.6842 0H13.5139C9.63895 0 7.22319 1.67633 6.26391 5.029L1.21891 22.6921C0.302863 25.9011 1.78096 27.5056 5.65591 27.5056H19.91L21.8853 20.5916H10.4334C9.58221 20.5916 9.26335 20.2324 9.46871 19.5071ZM58.5109 6.2606C56.4734 6.2606 54.8683 6.67797 53.6983 7.5093C52.5282 8.34404 51.7041 9.59275 51.2285 11.2554L46.5861 27.5056H53.9685L57.938 13.6091C58.1461 12.8838 58.673 12.5246 59.5215 12.5246H64.9502L66.7391 6.26402H58.5109V6.2606ZM44.8351 6.2606H29.2218L27.5248 12.1962H40.4656C41.3141 12.1962 41.633 12.5588 41.4276 13.2807L40.9736 14.8715C40.5683 14.7039 40.1278 14.6183 39.6468 14.6183H31.289C27.668 14.6183 25.3901 16.2605 24.4524 19.5413L23.5526 22.6921C22.6365 25.9011 23.9876 27.5056 27.6086 27.5056H38.9794C42.7949 27.5056 45.1809 25.8429 46.1321 22.5108L49.3477 11.2554C50.2962 7.92667 48.7911 6.2606 44.8351 6.2606ZM39.6604 19.4694L39.2361 20.9542C39.0983 21.4366 38.747 21.6795 38.1796 21.6795H31.9861C31.4214 21.6795 31.2079 21.4366 31.3457 20.9542L31.7699 19.4694C31.9078 18.9871 32.259 18.7442 32.8238 18.7442H39.0172C39.582 18.7476 39.7982 18.9871 39.6604 19.4694Z" fill="#22F7D8"/>
<path d="M91.6392 0.243164L80.9439 18.375L80.4386 0.243164H70.2135L62.3555 27.7488H69.9513L73.9641 13.7052L74.5775 27.7488H82.0005L90.5934 13.7052L86.5834 27.7488H94.0495L101.908 0.243164H91.6392ZM123.701 11.4986C124.652 8.16985 123.147 6.50377 119.188 6.50377H103.577L101.881 12.4394H114.821C115.67 12.4394 115.989 12.802 115.783 13.5239L115.329 15.1147C114.924 14.947 114.484 14.8615 114.003 14.8615H105.645C102.024 14.8615 99.7458 16.5036 98.8081 19.7845L97.9083 22.9353C96.9922 26.1443 98.3433 27.7488 101.964 27.7488H113.335C117.151 27.7488 119.537 26.0861 120.488 22.754L123.701 11.4986ZM114.016 19.716L113.592 21.2008C113.454 21.6832 113.103 21.9261 112.535 21.9261H106.342C105.777 21.9261 105.564 21.6832 105.701 21.2008L106.126 19.716C106.263 19.2337 106.615 18.9908 107.18 18.9908H113.373C113.94 18.9908 114.154 19.2337 114.016 19.716ZM152.044 6.50377H143.178L137.387 12.2238L134.693 6.50377H125.487L131.132 16.8936L119.291 27.7522H128.411L134.383 21.8542L137.152 27.7522H146.315L140.508 16.8936L152.044 6.50377Z" fill="#22F7D8"/>
<path d="M36.4194 49.7685V38.8239H41.9961C42.3176 38.8239 42.6765 38.8721 43.0729 38.9685C43.4694 39.0649 43.839 39.231 44.1819 39.4667C44.5247 39.7024 44.814 40.0239 45.0497 40.431C45.2854 40.8274 45.4033 41.3364 45.4033 41.9578C45.4033 42.7614 45.1836 43.431 44.7444 43.9667C44.3158 44.5024 43.764 44.8774 43.089 45.0917L45.789 49.7685H43.3622L40.8551 45.3167H38.5569V49.7685H36.4194ZM38.5569 43.4203H42.0122C42.1408 43.4203 42.2747 43.3882 42.414 43.3239C42.564 43.2596 42.7033 43.1685 42.8319 43.0507C42.9604 42.9328 43.0676 42.7828 43.1533 42.6007C43.239 42.4078 43.2819 42.1935 43.2819 41.9578C43.2819 41.7328 43.239 41.5399 43.1533 41.3792C43.0676 41.2078 42.9604 41.0685 42.8319 40.9614C42.7033 40.8542 42.564 40.7792 42.414 40.7364C42.2747 40.6828 42.1408 40.656 42.0122 40.656H38.5569V43.4203ZM46.4901 44.2882C46.4901 43.4524 46.6241 42.6917 46.8919 42.006C47.1705 41.3096 47.5562 40.7149 48.0491 40.2221C48.5526 39.7292 49.1526 39.3489 49.8491 39.081C50.5562 38.8024 51.3437 38.6632 52.2116 38.6632C53.0687 38.6632 53.8455 38.8024 54.5419 39.081C55.2491 39.3489 55.8491 39.7292 56.3419 40.2221C56.8455 40.7149 57.2312 41.3096 57.4991 42.006C57.7776 42.6917 57.9169 43.4524 57.9169 44.2882C57.9169 45.1239 57.7776 45.8899 57.4991 46.5864C57.2312 47.2721 56.8455 47.8614 56.3419 48.3542C55.8491 48.8471 55.2491 49.2328 54.5419 49.5114C53.8455 49.7792 53.0687 49.9132 52.2116 49.9132C51.3437 49.9132 50.5562 49.7792 49.8491 49.5114C49.1526 49.2328 48.5526 48.8471 48.0491 48.3542C47.5562 47.8614 47.1705 47.2721 46.8919 46.5864C46.6241 45.8899 46.4901 45.1239 46.4901 44.2882ZM48.6276 44.2882C48.6276 45.4346 48.9383 46.3453 49.5598 47.0203C50.1812 47.6846 51.0651 48.0167 52.2116 48.0167C52.7794 48.0167 53.283 47.931 53.7223 47.7596C54.1723 47.5774 54.5473 47.3257 54.8473 47.0042C55.158 46.6828 55.3937 46.2917 55.5544 45.831C55.7151 45.3703 55.7955 44.856 55.7955 44.2882C55.7955 43.7203 55.7151 43.206 55.5544 42.7453C55.3937 42.2846 55.158 41.8935 54.8473 41.5721C54.5473 41.2507 54.1723 41.0042 53.7223 40.8328C53.283 40.6507 52.7794 40.5596 52.2116 40.5596C51.0651 40.5596 50.1812 40.8971 49.5598 41.5721C48.9383 42.2364 48.6276 43.1417 48.6276 44.2882ZM57.8054 49.7524L62.3536 38.8239H64.6036L69.1679 49.7524H66.8054L65.9697 47.5989H61.0036L60.1679 49.7524H57.8054ZM65.2947 45.7024L63.4786 41.0096L61.6786 45.7024H65.2947ZM70.2221 38.8239H74.3042C75.1614 38.8239 75.9382 38.9524 76.6346 39.2096C77.3417 39.456 77.9417 39.8203 78.4346 40.3024C78.9382 40.7739 79.3239 41.3471 79.5917 42.0221C79.8703 42.6971 80.0096 43.4524 80.0096 44.2882C80.0096 45.1239 79.8703 45.8792 79.5917 46.5542C79.3239 47.2292 78.9382 47.8078 78.4346 48.2899C77.9417 48.7614 77.3417 49.1257 76.6346 49.3828C75.9382 49.6292 75.1614 49.7524 74.3042 49.7524H70.2221V38.8239ZM74.3042 47.856C75.4507 47.856 76.3346 47.5507 76.956 46.9399C77.5775 46.3185 77.8882 45.4346 77.8882 44.2882C77.8882 43.1417 77.5775 42.2632 76.956 41.6524C76.3346 41.031 75.4507 40.7203 74.3042 40.7203H72.3596V47.856H74.3042ZM87.9243 47.1167L91.3636 38.8239H93.6457L95.0278 49.7524L92.81 49.7846L91.9903 42.4721L89.0011 49.7524H86.8314L83.8421 42.5042L83.0386 49.7846L80.8046 49.7524L82.1868 38.8239H84.4689L87.9243 47.1167ZM96.0027 49.7524L100.551 38.8239H102.801L107.365 49.7524H105.003L104.167 47.5989H99.2009L98.3652 49.7524H96.0027ZM103.492 45.7024L101.676 41.0096L99.8759 45.7024H103.492ZM108.419 38.8239H112.63C113.327 38.8239 113.959 38.9096 114.527 39.081C115.094 39.2417 115.577 39.4882 115.973 39.8203C116.369 40.1524 116.675 40.5596 116.889 41.0417C117.103 41.5239 117.21 42.0703 117.21 42.681C117.21 43.2917 117.103 43.8435 116.889 44.3364C116.675 44.8185 116.369 45.2257 115.973 45.5578C115.577 45.8899 115.094 46.1417 114.527 46.3132C113.959 46.4846 113.327 46.5703 112.63 46.5703H110.557V49.7524H108.419V38.8239ZM110.557 44.6899H112.727C113.434 44.7007 114.002 44.5346 114.43 44.1917C114.859 43.8382 115.073 43.3346 115.073 42.681C115.073 42.0274 114.859 41.5399 114.43 41.2185C114.002 40.8864 113.434 40.7203 112.727 40.7203H110.557V44.6899Z" fill="#22F7D8"/>
</svg>
